<svg xmlns="http://www.w3.org/2000/svg" width="818.949" height="360.528" viewBox="0 0 818.949 360.528">
  <g id="Grupo_1201593" data-name="Grupo 1201593" transform="translate(-390.051 -5740.435)">
    <path id="Trazado_1242381" data-name="Trazado 1242381" d="M5,0H249.314a5,5,0,0,1,5,5V63.282a5,5,0,0,1-5,5H5a5,5,0,0,1-5-5V5A5,5,0,0,1,5,0Z" transform="translate(390.051 5887.699)" fill="#cbd8df"/>
    <path id="Trazado_1242382" data-name="Trazado 1242382" d="M5,0H249.314a5,5,0,0,1,5,5V63.282a5,5,0,0,1-5,5H5a5,5,0,0,1-5-5V5A5,5,0,0,1,5,0Z" transform="translate(954.686 5887.699)" fill="#cbd8df"/>
    <path id="Trazado_1242114" data-name="Trazado 1242114" d="M5,0H249.314a5,5,0,0,1,5,5V63.282a5,5,0,0,1-5,5H5a5,5,0,0,1-5-5V5A5,5,0,0,1,5,0Z" transform="translate(671.126 5747.833)" fill="#cbd8df"/>
    <path id="Trazado_1242115" data-name="Trazado 1242115" d="M5,0H249.314a5,5,0,0,1,5,5V63.282a5,5,0,0,1-5,5H5a5,5,0,0,1-5-5V5A5,5,0,0,1,5,0Z" transform="translate(671.126 6027.563)" fill="#cbd8df"/>
    <path id="Trazado_1242383" data-name="Trazado 1242383" d="M34.546,19H33.079V10.545q0-1,.123-2.452h-.035a7.84,7.84,0,0,1-.378,1.222L28.482,19h-.721l-4.3-9.615a7.533,7.533,0,0,1-.378-1.292H23.05q.07.756.07,2.47V19H21.7V6.4h1.951l3.867,8.789A11.254,11.254,0,0,1,28.1,16.7h.053q.378-1.037.606-1.547L32.7,6.4h1.846Zm6.882.211a4.175,4.175,0,0,1-3.186-1.261,4.672,4.672,0,0,1-1.191-3.344,4.867,4.867,0,0,1,1.239-3.542,4.455,4.455,0,0,1,3.349-1.274,4.037,4.037,0,0,1,3.142,1.239,4.914,4.914,0,0,1,1.129,3.437,4.835,4.835,0,0,1-1.217,3.45A4.265,4.265,0,0,1,41.428,19.211ZM41.534,11a2.742,2.742,0,0,0-2.2.945,3.88,3.88,0,0,0-.809,2.606,3.67,3.67,0,0,0,.817,2.522A2.778,2.778,0,0,0,41.534,18a2.635,2.635,0,0,0,2.149-.905,3.928,3.928,0,0,0,.751-2.575,4,4,0,0,0-.751-2.6A2.623,2.623,0,0,0,41.534,11Zm19.459,8H59.551V13.832a3.9,3.9,0,0,0-.461-2.162A1.75,1.75,0,0,0,57.539,11a1.921,1.921,0,0,0-1.569.844,3.228,3.228,0,0,0-.646,2.021V19H53.882V13.656Q53.882,11,51.835,11a1.9,1.9,0,0,0-1.564.8,3.288,3.288,0,0,0-.615,2.07V19H48.213V10h1.441v1.424h.035a3.058,3.058,0,0,1,2.795-1.635,2.6,2.6,0,0,1,2.549,1.863,3.212,3.212,0,0,1,2.988-1.863q2.971,0,2.971,3.665Zm9.958-4.14H64.6a3.366,3.366,0,0,0,.809,2.32A2.788,2.788,0,0,0,67.532,18a4.422,4.422,0,0,0,2.795-1V18.35a5.224,5.224,0,0,1-3.138.861,3.8,3.8,0,0,1-3-1.226,5.018,5.018,0,0,1-1.09-3.45,4.921,4.921,0,0,1,1.191-3.423,3.819,3.819,0,0,1,2.958-1.323,3.384,3.384,0,0,1,2.733,1.143,4.764,4.764,0,0,1,.967,3.173Zm-1.477-1.222a2.933,2.933,0,0,0-.6-1.942A2.051,2.051,0,0,0,67.224,11a2.328,2.328,0,0,0-1.731.729,3.31,3.31,0,0,0-.879,1.907ZM80.6,19H79.16V13.867Q79.16,11,77.068,11a2.269,2.269,0,0,0-1.789.813,3.013,3.013,0,0,0-.708,2.052V19H73.13V10h1.441v1.494h.035A3.248,3.248,0,0,1,77.56,9.789a2.753,2.753,0,0,1,2.259.954A4.248,4.248,0,0,1,80.6,13.5Zm6.891-.088a2.779,2.779,0,0,1-1.345.281q-2.364,0-2.364-2.637V11.23H82.236V10h1.547V7.8l1.441-.466V10h2.268v1.23H85.224V16.3a2.1,2.1,0,0,0,.308,1.292,1.228,1.228,0,0,0,1.02.387,1.515,1.515,0,0,0,.94-.3Zm5.687.3a4.175,4.175,0,0,1-3.186-1.261A4.672,4.672,0,0,1,88.8,14.605a4.867,4.867,0,0,1,1.239-3.542,4.455,4.455,0,0,1,3.349-1.274,4.037,4.037,0,0,1,3.142,1.239,4.914,4.914,0,0,1,1.129,3.437,4.835,4.835,0,0,1-1.217,3.45A4.265,4.265,0,0,1,93.178,19.211ZM93.284,11a2.742,2.742,0,0,0-2.2.945,3.88,3.88,0,0,0-.809,2.606,3.67,3.67,0,0,0,.817,2.522A2.778,2.778,0,0,0,93.284,18a2.635,2.635,0,0,0,2.149-.905,3.928,3.928,0,0,0,.751-2.575,4,4,0,0,0-.751-2.6A2.623,2.623,0,0,0,93.284,11Zm19.292,8h-1.441V17.471H111.1a3.327,3.327,0,0,1-3.094,1.74A3.362,3.362,0,0,1,105.294,18a4.958,4.958,0,0,1-1.015-3.292,5.394,5.394,0,0,1,1.125-3.577,3.71,3.71,0,0,1,3-1.345,2.885,2.885,0,0,1,2.7,1.459h.035V5.676h1.441Zm-1.441-4.069V13.6a2.575,2.575,0,0,0-.721-1.846A2.417,2.417,0,0,0,108.585,11a2.489,2.489,0,0,0-2.074.967,4.237,4.237,0,0,0-.756,2.672,3.81,3.81,0,0,0,.725,2.457,2.37,2.37,0,0,0,1.947.9,2.462,2.462,0,0,0,1.956-.87A3.242,3.242,0,0,0,111.134,14.931Zm11.593-.07h-6.354a3.366,3.366,0,0,0,.809,2.32,2.788,2.788,0,0,0,2.127.817,4.422,4.422,0,0,0,2.795-1V18.35a5.224,5.224,0,0,1-3.138.861,3.8,3.8,0,0,1-3-1.226,5.018,5.018,0,0,1-1.09-3.45,4.921,4.921,0,0,1,1.191-3.423,3.819,3.819,0,0,1,2.958-1.323,3.384,3.384,0,0,1,2.733,1.143,4.764,4.764,0,0,1,.967,3.173Zm-1.477-1.222a2.933,2.933,0,0,0-.6-1.942A2.051,2.051,0,0,0,119,11a2.328,2.328,0,0,0-1.731.729,3.31,3.31,0,0,0-.879,1.907ZM136.913,10l-3.586,9h-1.415l-3.41-9h1.582l2.285,6.539a5.869,5.869,0,0,1,.316,1.257h.035A5.943,5.943,0,0,1,133,16.574L135.392,10Zm8.78,4.86h-6.354a3.366,3.366,0,0,0,.809,2.32,2.788,2.788,0,0,0,2.127.817,4.422,4.422,0,0,0,2.795-1V18.35a5.224,5.224,0,0,1-3.138.861,3.8,3.8,0,0,1-3-1.226,5.018,5.018,0,0,1-1.09-3.45,4.921,4.921,0,0,1,1.191-3.423,3.819,3.819,0,0,1,2.958-1.323,3.384,3.384,0,0,1,2.733,1.143,4.764,4.764,0,0,1,.967,3.173Zm-1.477-1.222a2.933,2.933,0,0,0-.6-1.942A2.051,2.051,0,0,0,141.966,11a2.328,2.328,0,0,0-1.731.729,3.31,3.31,0,0,0-.879,1.907Zm8.35-2.18a1.763,1.763,0,0,0-1.09-.29,1.839,1.839,0,0,0-1.542.87,4.023,4.023,0,0,0-.62,2.373V19h-1.441V10h1.441v1.854h.035a3.143,3.143,0,0,1,.94-1.481,2.144,2.144,0,0,1,1.415-.532,2.353,2.353,0,0,1,.861.123ZM161.812,19h-1.441V17.471h-.035a3.327,3.327,0,0,1-3.094,1.74A3.362,3.362,0,0,1,154.53,18a4.958,4.958,0,0,1-1.015-3.292,5.394,5.394,0,0,1,1.125-3.577,3.71,3.71,0,0,1,3-1.345,2.885,2.885,0,0,1,2.7,1.459h.035V5.676h1.441Zm-1.441-4.069V13.6a2.575,2.575,0,0,0-.721-1.846A2.417,2.417,0,0,0,157.822,11a2.489,2.489,0,0,0-2.074.967,4.237,4.237,0,0,0-.756,2.672,3.81,3.81,0,0,0,.725,2.457,2.37,2.37,0,0,0,1.947.9,2.462,2.462,0,0,0,1.956-.87A3.242,3.242,0,0,0,160.371,14.931ZM171.172,19h-1.441V17.594H169.7a3.018,3.018,0,0,1-2.769,1.617,2.959,2.959,0,0,1-2.1-.712,2.466,2.466,0,0,1-.76-1.89q0-2.522,2.971-2.936l2.7-.378q0-2.294-1.854-2.294a4.431,4.431,0,0,0-2.936,1.107V10.633A5.577,5.577,0,0,1,168,9.789q3.173,0,3.173,3.357Zm-1.441-4.553-2.171.3a3.525,3.525,0,0,0-1.512.5,1.432,1.432,0,0,0-.51,1.261,1.374,1.374,0,0,0,.47,1.077,1.817,1.817,0,0,0,1.252.417,2.314,2.314,0,0,0,1.771-.751,2.685,2.685,0,0,0,.7-1.9ZM181.57,19h-1.441V17.471h-.035A3.327,3.327,0,0,1,177,19.211,3.362,3.362,0,0,1,174.288,18a4.958,4.958,0,0,1-1.015-3.292,5.394,5.394,0,0,1,1.125-3.577,3.71,3.71,0,0,1,3-1.345,2.885,2.885,0,0,1,2.7,1.459h.035V5.676h1.441Zm-1.441-4.069V13.6a2.575,2.575,0,0,0-.721-1.846A2.417,2.417,0,0,0,177.58,11a2.489,2.489,0,0,0-2.074.967,4.237,4.237,0,0,0-.756,2.672,3.81,3.81,0,0,0,.725,2.457,2.37,2.37,0,0,0,1.947.9,2.462,2.462,0,0,0,1.956-.87A3.242,3.242,0,0,0,180.128,14.931Z" transform="translate(698.023 5769.975)" fill="#12263f"/>
    <path id="Trazado_1242384" data-name="Trazado 1242384" d="M50.217,19H48.75V10.545q0-1,.123-2.452h-.035a7.84,7.84,0,0,1-.378,1.222L44.153,19h-.721l-4.3-9.615a7.533,7.533,0,0,1-.378-1.292h-.035q.07.756.07,2.47V19H37.368V6.4h1.951l3.867,8.789a11.254,11.254,0,0,1,.58,1.512h.053q.378-1.037.606-1.547L48.372,6.4h1.846Zm6.882.211a4.175,4.175,0,0,1-3.186-1.261,4.672,4.672,0,0,1-1.191-3.344,4.867,4.867,0,0,1,1.239-3.542A4.455,4.455,0,0,1,57.31,9.789a4.037,4.037,0,0,1,3.142,1.239,4.914,4.914,0,0,1,1.129,3.437,4.835,4.835,0,0,1-1.217,3.45A4.265,4.265,0,0,1,57.1,19.211ZM57.2,11a2.742,2.742,0,0,0-2.2.945,3.88,3.88,0,0,0-.809,2.606,3.67,3.67,0,0,0,.817,2.522A2.778,2.778,0,0,0,57.2,18a2.635,2.635,0,0,0,2.149-.905,3.928,3.928,0,0,0,.751-2.575,4,4,0,0,0-.751-2.6A2.623,2.623,0,0,0,57.2,11Zm19.459,8H75.222V13.832a3.9,3.9,0,0,0-.461-2.162A1.75,1.75,0,0,0,73.21,11a1.921,1.921,0,0,0-1.569.844,3.228,3.228,0,0,0-.646,2.021V19H69.553V13.656Q69.553,11,67.505,11a1.9,1.9,0,0,0-1.564.8,3.288,3.288,0,0,0-.615,2.07V19H63.884V10h1.441v1.424h.035a3.058,3.058,0,0,1,2.795-1.635A2.6,2.6,0,0,1,70.7,11.652a3.212,3.212,0,0,1,2.988-1.863q2.971,0,2.971,3.665Zm9.958-4.14H80.267a3.366,3.366,0,0,0,.809,2.32A2.788,2.788,0,0,0,83.2,18,4.422,4.422,0,0,0,86,17V18.35a5.224,5.224,0,0,1-3.138.861,3.8,3.8,0,0,1-3-1.226,5.018,5.018,0,0,1-1.09-3.45,4.921,4.921,0,0,1,1.191-3.423,3.819,3.819,0,0,1,2.958-1.323,3.384,3.384,0,0,1,2.733,1.143,4.764,4.764,0,0,1,.967,3.173Zm-1.477-1.222a2.933,2.933,0,0,0-.6-1.942A2.051,2.051,0,0,0,82.9,11a2.328,2.328,0,0,0-1.731.729,3.31,3.31,0,0,0-.879,1.907ZM96.272,19H94.831V13.867Q94.831,11,92.739,11a2.269,2.269,0,0,0-1.789.813,3.013,3.013,0,0,0-.708,2.052V19H88.8V10h1.441v1.494h.035a3.248,3.248,0,0,1,2.953-1.705,2.753,2.753,0,0,1,2.259.954,4.248,4.248,0,0,1,.782,2.755Zm6.891-.088a2.779,2.779,0,0,1-1.345.281q-2.364,0-2.364-2.637V11.23H97.907V10h1.547V7.8l1.441-.466V10h2.268v1.23H100.9V16.3a2.1,2.1,0,0,0,.308,1.292,1.228,1.228,0,0,0,1.02.387,1.515,1.515,0,0,0,.94-.3Zm5.687.3a4.175,4.175,0,0,1-3.186-1.261,4.672,4.672,0,0,1-1.191-3.344,4.867,4.867,0,0,1,1.239-3.542,4.455,4.455,0,0,1,3.349-1.274,4.037,4.037,0,0,1,3.142,1.239,4.914,4.914,0,0,1,1.129,3.437,4.835,4.835,0,0,1-1.217,3.45A4.265,4.265,0,0,1,108.849,19.211ZM108.955,11a2.742,2.742,0,0,0-2.2.945,3.88,3.88,0,0,0-.809,2.606,3.67,3.67,0,0,0,.817,2.522,2.778,2.778,0,0,0,2.188.923,2.635,2.635,0,0,0,2.149-.905,3.928,3.928,0,0,0,.751-2.575,4,4,0,0,0-.751-2.6A2.623,2.623,0,0,0,108.955,11ZM126.7,18.587a4.684,4.684,0,0,1-2.461.624,4.074,4.074,0,0,1-3.107-1.252,4.539,4.539,0,0,1-1.182-3.248,4.99,4.99,0,0,1,1.274-3.573,4.458,4.458,0,0,1,3.4-1.349,4.735,4.735,0,0,1,2.092.439v1.477a3.665,3.665,0,0,0-2.145-.7,2.9,2.9,0,0,0-2.263.989,3.752,3.752,0,0,0-.883,2.6,3.573,3.573,0,0,0,.831,2.5,2.863,2.863,0,0,0,2.228.914,3.613,3.613,0,0,0,2.215-.782Zm6.873-7.128a1.763,1.763,0,0,0-1.09-.29,1.839,1.839,0,0,0-1.542.87,4.023,4.023,0,0,0-.62,2.373V19h-1.441V10h1.441v1.854h.035a3.143,3.143,0,0,1,.94-1.481,2.144,2.144,0,0,1,1.415-.532,2.353,2.353,0,0,1,.861.123ZM136.579,19h-1.441V10h1.441Zm1.292-13.588-2.3,2.883h-1.116l1.96-2.883Zm5.8,13.5a2.779,2.779,0,0,1-1.345.281q-2.364,0-2.364-2.637V11.23h-1.547V10h1.547V7.8l1.441-.466V10h2.268v1.23H141.4V16.3a2.1,2.1,0,0,0,.308,1.292,1.228,1.228,0,0,0,1.02.387,1.515,1.515,0,0,0,.94-.3Zm2.663-11.2a.913.913,0,0,1-.659-.264.89.89,0,0,1-.272-.668.923.923,0,0,1,.932-.94.931.931,0,0,1,.672.268.939.939,0,0,1,0,1.332A.923.923,0,0,1,146.335,7.715Zm.7,11.285H145.6V10h1.441Zm9.053-.413a4.684,4.684,0,0,1-2.461.624,4.074,4.074,0,0,1-3.107-1.252,4.539,4.539,0,0,1-1.182-3.248,4.99,4.99,0,0,1,1.274-3.573,4.458,4.458,0,0,1,3.4-1.349,4.735,4.735,0,0,1,2.092.439v1.477a3.665,3.665,0,0,0-2.145-.7,2.9,2.9,0,0,0-2.263.989,3.752,3.752,0,0,0-.883,2.6,3.573,3.573,0,0,0,.831,2.5,2.863,2.863,0,0,0,2.228.914,3.613,3.613,0,0,0,2.215-.782Zm5.941.624a4.175,4.175,0,0,1-3.186-1.261,4.672,4.672,0,0,1-1.191-3.344,4.867,4.867,0,0,1,1.239-3.542,4.455,4.455,0,0,1,3.349-1.274,4.037,4.037,0,0,1,3.142,1.239,4.914,4.914,0,0,1,1.129,3.437,4.835,4.835,0,0,1-1.217,3.45A4.265,4.265,0,0,1,162.032,19.211ZM162.137,11a2.742,2.742,0,0,0-2.2.945,3.88,3.88,0,0,0-.809,2.606,3.67,3.67,0,0,0,.817,2.522,2.778,2.778,0,0,0,2.188.923,2.635,2.635,0,0,0,2.149-.905,3.928,3.928,0,0,0,.751-2.575,4,4,0,0,0-.751-2.6A2.623,2.623,0,0,0,162.137,11Z" transform="translate(698.023 6049.704)" fill="#12263f"/>
    <path id="Trazado_1242385" data-name="Trazado 1242385" d="M51.758,19H50.291V10.545q0-1,.123-2.452h-.035A7.84,7.84,0,0,1,50,9.314L45.694,19h-.721l-4.3-9.615A7.533,7.533,0,0,1,40.3,8.093h-.035q.07.756.07,2.47V19H38.909V6.4H40.86l3.867,8.789a11.254,11.254,0,0,1,.58,1.512h.053q.378-1.037.606-1.547L49.913,6.4h1.846Zm6.882.211a4.175,4.175,0,0,1-3.186-1.261,4.672,4.672,0,0,1-1.191-3.344A4.867,4.867,0,0,1,55.5,11.063a4.455,4.455,0,0,1,3.349-1.274,4.037,4.037,0,0,1,3.142,1.239,4.914,4.914,0,0,1,1.129,3.437,4.835,4.835,0,0,1-1.217,3.45A4.265,4.265,0,0,1,58.64,19.211ZM58.746,11a2.742,2.742,0,0,0-2.2.945,3.88,3.88,0,0,0-.809,2.606,3.67,3.67,0,0,0,.817,2.522A2.778,2.778,0,0,0,58.746,18a2.635,2.635,0,0,0,2.149-.905,3.928,3.928,0,0,0,.751-2.575,4,4,0,0,0-.751-2.6A2.623,2.623,0,0,0,58.746,11ZM78.2,19H76.763V13.832A3.9,3.9,0,0,0,76.3,11.67,1.75,1.75,0,0,0,74.75,11a1.921,1.921,0,0,0-1.569.844,3.228,3.228,0,0,0-.646,2.021V19H71.094V13.656Q71.094,11,69.046,11a1.9,1.9,0,0,0-1.564.8,3.288,3.288,0,0,0-.615,2.07V19H65.425V10h1.441v1.424H66.9A3.058,3.058,0,0,1,69.7,9.789a2.6,2.6,0,0,1,2.549,1.863,3.212,3.212,0,0,1,2.988-1.863q2.971,0,2.971,3.665Zm9.958-4.14H81.808a3.366,3.366,0,0,0,.809,2.32A2.788,2.788,0,0,0,84.744,18a4.422,4.422,0,0,0,2.795-1V18.35a5.224,5.224,0,0,1-3.138.861,3.8,3.8,0,0,1-3-1.226,5.018,5.018,0,0,1-1.09-3.45A4.921,4.921,0,0,1,81.5,11.112a3.819,3.819,0,0,1,2.958-1.323A3.384,3.384,0,0,1,87.2,10.932a4.764,4.764,0,0,1,.967,3.173Zm-1.477-1.222a2.933,2.933,0,0,0-.6-1.942A2.051,2.051,0,0,0,84.436,11a2.328,2.328,0,0,0-1.731.729,3.31,3.31,0,0,0-.879,1.907ZM97.813,19H96.372V13.867Q96.372,11,94.28,11a2.269,2.269,0,0,0-1.789.813,3.013,3.013,0,0,0-.708,2.052V19H90.342V10h1.441v1.494h.035a3.248,3.248,0,0,1,2.953-1.705,2.753,2.753,0,0,1,2.259.954,4.248,4.248,0,0,1,.782,2.755Zm6.891-.088a2.779,2.779,0,0,1-1.345.281q-2.364,0-2.364-2.637V11.23H99.448V10h1.547V7.8l1.441-.466V10H104.7v1.23h-2.268V16.3a2.1,2.1,0,0,0,.308,1.292,1.228,1.228,0,0,0,1.02.387,1.515,1.515,0,0,0,.94-.3Zm5.687.3A4.175,4.175,0,0,1,107.2,17.95a4.672,4.672,0,0,1-1.191-3.344,4.867,4.867,0,0,1,1.239-3.542A4.455,4.455,0,0,1,110.6,9.789a4.037,4.037,0,0,1,3.142,1.239,4.914,4.914,0,0,1,1.129,3.437,4.835,4.835,0,0,1-1.217,3.45A4.265,4.265,0,0,1,110.39,19.211ZM110.5,11a2.742,2.742,0,0,0-2.2.945,3.88,3.88,0,0,0-.809,2.606,3.67,3.67,0,0,0,.817,2.522A2.778,2.778,0,0,0,110.5,18a2.635,2.635,0,0,0,2.149-.905,3.928,3.928,0,0,0,.751-2.575,4,4,0,0,0-.751-2.6A2.623,2.623,0,0,0,110.5,11Zm12.349-3.287a.913.913,0,0,1-.659-.264.89.89,0,0,1-.272-.668.923.923,0,0,1,.932-.94.931.931,0,0,1,.672.268.939.939,0,0,1,0,1.332A.923.923,0,0,1,122.844,7.715Zm.7,11.285h-1.441V10h1.441Zm10.389,0h-1.441V13.867Q132.495,11,130.4,11a2.269,2.269,0,0,0-1.789.813,3.013,3.013,0,0,0-.708,2.052V19h-1.441V10h1.441v1.494h.035A3.248,3.248,0,0,1,130.9,9.789a2.753,2.753,0,0,1,2.259.954,4.248,4.248,0,0,1,.782,2.755ZM137.39,7.715a.913.913,0,0,1-.659-.264.89.89,0,0,1-.272-.668.923.923,0,0,1,.932-.94.931.931,0,0,1,.672.268.939.939,0,0,1,0,1.332A.923.923,0,0,1,137.39,7.715Zm.7,11.285h-1.441V10h1.441Zm9.053-.413a4.684,4.684,0,0,1-2.461.624,4.074,4.074,0,0,1-3.107-1.252,4.539,4.539,0,0,1-1.182-3.248,4.99,4.99,0,0,1,1.274-3.573,4.458,4.458,0,0,1,3.4-1.349,4.735,4.735,0,0,1,2.092.439v1.477a3.665,3.665,0,0,0-2.145-.7,2.9,2.9,0,0,0-2.263.989,3.752,3.752,0,0,0-.883,2.6,3.573,3.573,0,0,0,.831,2.5,2.863,2.863,0,0,0,2.228.914,3.613,3.613,0,0,0,2.215-.782Zm2.918-10.872a.913.913,0,0,1-.659-.264.89.89,0,0,1-.272-.668.923.923,0,0,1,.932-.94.931.931,0,0,1,.672.268.939.939,0,0,1,0,1.332A.923.923,0,0,1,150.064,7.715Zm.7,11.285h-1.441V10h1.441Zm9.36,0h-1.441V17.594h-.035a3.018,3.018,0,0,1-2.769,1.617,2.959,2.959,0,0,1-2.1-.712,2.466,2.466,0,0,1-.76-1.89q0-2.522,2.971-2.936l2.7-.378q0-2.294-1.854-2.294a4.431,4.431,0,0,0-2.936,1.107V10.633a5.577,5.577,0,0,1,3.059-.844q3.173,0,3.173,3.357Zm-1.441-4.553-2.171.3a3.525,3.525,0,0,0-1.512.5,1.432,1.432,0,0,0-.51,1.261,1.374,1.374,0,0,0,.47,1.077,1.817,1.817,0,0,0,1.252.417,2.314,2.314,0,0,0,1.771-.751,2.685,2.685,0,0,0,.7-1.9Zm5.6,4.553h-1.441V5.676h1.441Z" transform="translate(416.051 5911.453)" fill="#12263f"/>
    <path id="Trazado_1242386" data-name="Trazado 1242386" d="M57.495,19H56.027V10.545q0-1,.123-2.452h-.035a7.84,7.84,0,0,1-.378,1.222L51.43,19H50.71l-4.3-9.615a7.533,7.533,0,0,1-.378-1.292H46q.07.756.07,2.47V19H44.645V6.4H46.6l3.867,8.789a11.254,11.254,0,0,1,.58,1.512H51.1q.378-1.037.606-1.547L55.649,6.4h1.846Zm6.882.211A4.175,4.175,0,0,1,61.19,17.95,4.672,4.672,0,0,1,60,14.605a4.867,4.867,0,0,1,1.239-3.542,4.455,4.455,0,0,1,3.349-1.274,4.037,4.037,0,0,1,3.142,1.239,4.914,4.914,0,0,1,1.129,3.437,4.835,4.835,0,0,1-1.217,3.45A4.265,4.265,0,0,1,64.376,19.211ZM64.482,11a2.742,2.742,0,0,0-2.2.945,3.88,3.88,0,0,0-.809,2.606,3.67,3.67,0,0,0,.817,2.522A2.778,2.778,0,0,0,64.482,18a2.635,2.635,0,0,0,2.149-.905,3.928,3.928,0,0,0,.751-2.575,4,4,0,0,0-.751-2.6A2.623,2.623,0,0,0,64.482,11Zm19.459,8H82.5V13.832a3.9,3.9,0,0,0-.461-2.162A1.75,1.75,0,0,0,80.487,11a1.921,1.921,0,0,0-1.569.844,3.228,3.228,0,0,0-.646,2.021V19H76.831V13.656Q76.831,11,74.783,11a1.9,1.9,0,0,0-1.564.8,3.288,3.288,0,0,0-.615,2.07V19H71.162V10H72.6v1.424h.035a3.058,3.058,0,0,1,2.795-1.635,2.6,2.6,0,0,1,2.549,1.863A3.212,3.212,0,0,1,80.97,9.789q2.971,0,2.971,3.665ZM93.9,14.86H87.544a3.366,3.366,0,0,0,.809,2.32A2.788,2.788,0,0,0,90.48,18a4.422,4.422,0,0,0,2.795-1V18.35a5.224,5.224,0,0,1-3.138.861,3.8,3.8,0,0,1-3-1.226,5.018,5.018,0,0,1-1.09-3.45,4.921,4.921,0,0,1,1.191-3.423A3.819,3.819,0,0,1,90.2,9.789a3.384,3.384,0,0,1,2.733,1.143A4.764,4.764,0,0,1,93.9,14.1Zm-1.477-1.222a2.933,2.933,0,0,0-.6-1.942A2.051,2.051,0,0,0,90.172,11a2.328,2.328,0,0,0-1.731.729,3.31,3.31,0,0,0-.879,1.907ZM103.549,19h-1.441V13.867q0-2.865-2.092-2.865a2.269,2.269,0,0,0-1.789.813,3.013,3.013,0,0,0-.708,2.052V19H96.079V10H97.52v1.494h.035a3.248,3.248,0,0,1,2.953-1.705,2.753,2.753,0,0,1,2.259.954,4.248,4.248,0,0,1,.782,2.755Zm6.891-.088a2.779,2.779,0,0,1-1.345.281q-2.364,0-2.364-2.637V11.23h-1.547V10h1.547V7.8l1.441-.466V10h2.268v1.23h-2.268V16.3a2.1,2.1,0,0,0,.308,1.292,1.228,1.228,0,0,0,1.02.387,1.515,1.515,0,0,0,.94-.3Zm5.687.3a4.175,4.175,0,0,1-3.186-1.261,4.672,4.672,0,0,1-1.191-3.344,4.867,4.867,0,0,1,1.239-3.542,4.455,4.455,0,0,1,3.349-1.274,4.037,4.037,0,0,1,3.142,1.239,4.914,4.914,0,0,1,1.129,3.437,4.835,4.835,0,0,1-1.217,3.45A4.265,4.265,0,0,1,116.126,19.211ZM116.232,11a2.742,2.742,0,0,0-2.2.945,3.88,3.88,0,0,0-.809,2.606,3.67,3.67,0,0,0,.817,2.522,2.778,2.778,0,0,0,2.188.923,2.635,2.635,0,0,0,2.149-.905,3.928,3.928,0,0,0,.751-2.575,4,4,0,0,0-.751-2.6A2.623,2.623,0,0,0,116.232,11ZM132.29,6.941a1.92,1.92,0,0,0-.958-.237q-1.512,0-1.512,1.907V10h2.109v1.23H129.82V19h-1.433V11.23h-1.538V10h1.538V8.541A3.032,3.032,0,0,1,129.2,6.3a2.759,2.759,0,0,1,2.039-.822,2.824,2.824,0,0,1,1.046.158Zm1.925.773a.913.913,0,0,1-.659-.264.89.89,0,0,1-.272-.668.923.923,0,0,1,.932-.94.931.931,0,0,1,.672.268.939.939,0,0,1,0,1.332A.923.923,0,0,1,134.214,7.715Zm.7,11.285h-1.441V10h1.441Zm10.389,0h-1.441V13.867q0-2.865-2.092-2.865a2.269,2.269,0,0,0-1.789.813,3.013,3.013,0,0,0-.708,2.052V19h-1.441V10h1.441v1.494h.035a3.248,3.248,0,0,1,2.953-1.705,2.753,2.753,0,0,1,2.259.954,4.248,4.248,0,0,1,.782,2.755Zm9.158,0h-1.441V17.594h-.035a3.018,3.018,0,0,1-2.769,1.617,2.959,2.959,0,0,1-2.1-.712,2.466,2.466,0,0,1-.76-1.89q0-2.522,2.971-2.936l2.7-.378q0-2.294-1.854-2.294a4.431,4.431,0,0,0-2.936,1.107V10.633a5.577,5.577,0,0,1,3.059-.844q3.173,0,3.173,3.357Zm-1.441-4.553-2.171.3a3.525,3.525,0,0,0-1.512.5,1.432,1.432,0,0,0-.51,1.261,1.374,1.374,0,0,0,.47,1.077,1.817,1.817,0,0,0,1.252.417,2.314,2.314,0,0,0,1.771-.751,2.685,2.685,0,0,0,.7-1.9Zm5.6,4.553H157.18V5.676h1.441Z" transform="translate(981.256 5911.872)" fill="#12263f"/>
    <g id="Grupo_1176689" data-name="Grupo 1176689" transform="translate(-1 92.453)">
      <path id="Trazado_1031777" data-name="Trazado 1031777" d="M-50.577-21.338s34.47-25.227,83.256-15.078,75.463,51.759,75.463,51.759" transform="translate(569.492 5759.443) rotate(-48)" fill="none" stroke="#3e7dad" stroke-linecap="round" stroke-width="6"/>
      <path id="Trazado_1031776" data-name="Trazado 1031776" d="M0,0C3.525,5.172,5.272,7.818,5.238,12.885,5.2,17.794,0,25.61,0,25.61L21.911,12.756Z" transform="translate(641.567 5676.716)" fill="#3e7dad"/>
    </g>
    <g id="Grupo_1176690" data-name="Grupo 1176690" transform="translate(1601.235 11748.945) rotate(-180)">
      <path id="Trazado_1031777-2" data-name="Trazado 1031777" d="M-50.577-21.338s34.47-25.227,83.256-15.078,75.463,51.759,75.463,51.759" transform="translate(569.492 5759.443) rotate(-48)" fill="none" stroke="#3e7dad" stroke-linecap="round" stroke-width="6"/>
      <path id="Trazado_1031776-2" data-name="Trazado 1031776" d="M0,0C3.525,5.172,5.272,7.818,5.238,12.885,5.2,17.794,0,25.61,0,25.61L21.911,12.756Z" transform="translate(641.567 5676.716)" fill="#3e7dad"/>
    </g>
    <g id="Grupo_1176691" data-name="Grupo 1176691" transform="translate(967.588 5922.635) rotate(-110)">
      <path id="Trazado_1031777-3" data-name="Trazado 1031777" d="M0,17.485S34.47-7.741,83.256,2.407s75.463,51.76,75.463,51.76" transform="translate(156.68 36.245) rotate(132)" fill="none" stroke="#3e7dad" stroke-linecap="round" stroke-width="6"/>
      <path id="Trazado_1031776-3" data-name="Trazado 1031776" d="M21.911,25.61c-3.525-5.172-5.272-7.818-5.238-12.885C16.706,7.816,21.911,0,21.911,0L0,12.854Z" transform="translate(0 104.969)" fill="#3e7dad"/>
    </g>
    <g id="Grupo_1176692" data-name="Grupo 1176692" transform="translate(630.412 5922.635) rotate(70)">
      <path id="Trazado_1031777-4" data-name="Trazado 1031777" d="M0,17.485S34.47-7.741,83.256,2.407s75.463,51.76,75.463,51.76" transform="translate(156.68 36.245) rotate(132)" fill="none" stroke="#3e7dad" stroke-linecap="round" stroke-width="6"/>
      <path id="Trazado_1031776-4" data-name="Trazado 1031776" d="M21.911,25.61c-3.525-5.172-5.272-7.818-5.238-12.885C16.706,7.816,21.911,0,21.911,0L0,12.854Z" transform="translate(0 104.969)" fill="#3e7dad"/>
    </g>
  </g>
</svg>
